<svg width="52" height="27" viewBox="0 0 52 27" fill="none" xmlns="http://www.w3.org/2000/svg">
  <path d="M0.442907 14.3234L9.52724 25.5136C9.81911 25.8717 10.184 26.0508 10.5488 26.0508C10.9136 26.0508 11.2785 25.8717 11.5703 25.5136C12.1541 24.7975 12.1541 23.6784 11.5703 22.9623L4.96683 14.8158H26.2731C27.0757 14.8158 27.7324 14.0101 27.7324 13.0254C27.7324 12.0407 27.0757 11.235 26.2731 11.235H4.96683L11.5703 3.0885C12.1541 2.37233 12.1541 1.2533 11.5703 0.53713C10.9866 -0.179043 10.0745 -0.179043 9.49076 0.53713L0.40641 11.7273C-0.140839 12.4883 -0.140825 13.652 0.442907 14.3234Z" fill="#9A9A9A" />
  <rect width="49.3495" height="4.00195" rx="2.00098" transform="matrix(-1 0 0 1 52 11.0444)" fill="#9A9A9A" />
</svg>