<svg width="50" height="27" viewBox="0 0 50 27" fill="none" xmlns="http://www.w3.org/2000/svg">
  <path d="M49.5745 14.3234L40.8395 25.5136C40.5589 25.8717 40.208 26.0508 39.8572 26.0508C39.5064 26.0508 39.1556 25.8717 38.875 25.5136C38.3137 24.7975 38.3137 23.6784 38.875 22.9623L45.2245 14.8158H24.7377C23.9659 14.8158 23.3345 14.0101 23.3345 13.0254C23.3345 12.0407 23.9659 11.235 24.7377 11.235H45.2245L38.875 3.0885C38.3137 2.37233 38.3137 1.2533 38.875 0.53713C39.4363 -0.179043 40.3133 -0.179043 40.8746 0.53713L49.6095 11.7273C50.1358 12.4883 50.1357 13.652 49.5745 14.3234Z" fill="#9A9A9A" />
  <rect y="11.0444" width="47.4516" height="4.00195" rx="2.00098" fill="#9A9A9A" />
</svg>