<svg width="36" height="43" viewBox="0 0 36 43" fill="none" xmlns="http://www.w3.org/2000/svg">
<g filter="url(#filter0_d_14_8)">
<path d="M17.6984 24.5005C10.242 24.5005 4.17578 30.5667 4.17578 38.0231C4.17578 38.3866 4.46995 38.6807 4.83339 38.6807H30.5635C30.9269 38.6807 31.2211 38.3866 31.2211 38.0231C31.2211 30.5667 25.1548 24.5005 17.6984 24.5005ZM5.50854 37.3655C5.85137 30.9389 11.1881 25.8157 17.6984 25.8157C24.2088 25.8157 29.5455 30.9389 29.8883 37.3655H5.50854Z" fill="#20A0CD"/>
<path d="M17.4752 23.2981C21.7882 23.2981 25.2976 19.7878 25.2976 15.4726C25.2976 13.9482 24.8579 12.4778 24.0307 11.2086V1.50844C24.0307 1.145 23.7365 0.85083 23.373 0.85083H11.5782C11.2147 0.85083 10.9206 1.145 10.9206 1.50844V11.2042C10.0911 12.476 9.65137 13.9495 9.65137 15.4726C9.65093 19.7878 13.1608 23.2981 17.4752 23.2981ZM12.2353 2.16649H22.715V10.9114H12.2353V2.16649ZM11.8364 12.2262H23.1161C23.6839 13.2104 23.9824 14.3235 23.9824 15.4726C23.982 19.0627 21.0631 21.9829 17.4752 21.9829C13.8864 21.9829 10.9666 19.0622 10.9666 15.4726C10.9666 14.3252 11.2673 13.2117 11.8364 12.2262Z" fill="#20A0CD"/>
<path d="M19.767 5.95385H18.1331V4.31728C18.1331 3.95384 17.8389 3.65967 17.4755 3.65967C17.112 3.65967 16.8179 3.95384 16.8179 4.31728V5.95385H15.1835C14.82 5.95385 14.5259 6.24802 14.5259 6.61146C14.5259 6.9749 14.82 7.26907 15.1835 7.26907H16.8179V8.90345C16.8179 9.26688 17.112 9.56105 17.4755 9.56105C17.8389 9.56105 18.1331 9.26688 18.1331 8.90345V7.26907H19.767C20.1305 7.26907 20.4246 6.9749 20.4246 6.61146C20.4246 6.24802 20.13 5.95385 19.767 5.95385Z" fill="#20A0CD"/>
</g>
<defs>
<filter id="filter0_d_14_8" x="0.175781" y="0.85083" width="35.0454" height="45.8298" filterUnits="userSpaceOnUse" color-interpolation-filters="sRGB">
<feFlood flood-opacity="0" result="BackgroundImageFix"/>
<feColorMatrix in="SourceAlpha" type="matrix" values="0 0 0 0 0 0 0 0 0 0 0 0 0 0 0 0 0 0 127 0" result="hardAlpha"/>
<feOffset dy="4"/>
<feGaussianBlur stdDeviation="2"/>
<feComposite in2="hardAlpha" operator="out"/>
<feColorMatrix type="matrix" values="0 0 0 0 0 0 0 0 0 0 0 0 0 0 0 0 0 0 0.25 0"/>
<feBlend mode="normal" in2="BackgroundImageFix" result="effect1_dropShadow_14_8"/>
<feBlend mode="normal" in="SourceGraphic" in2="effect1_dropShadow_14_8" result="shape"/>
</filter>
</defs>
</svg>
